<svg width="42" height="28" viewBox="0 0 42 28" fill="none" xmlns="http://www.w3.org/2000/svg">
<path d="M28.2361 3.70782H28.5142V5.46865H28.2361V3.70782Z" fill="white"/>
<path d="M28.2361 21.2234H28.5142V22.9842H28.2361V21.2234Z" fill="white"/>
<path d="M26.5646 3.87839L26.8384 3.83011L27.1441 5.56419L26.8703 5.61247L26.5646 3.87839Z" fill="white"/>
<path d="M29.6061 21.1279L29.8799 21.0796L30.1857 22.8137L29.9119 22.8619L29.6061 21.1279Z" fill="white"/>
<path d="M24.9481 4.33662L25.2093 4.24153L25.8116 5.89617L25.5503 5.99126L24.9481 4.33662Z" fill="white"/>
<path d="M30.9387 20.7959L31.2 20.7008L31.8022 22.3554L31.541 22.4505L30.9387 20.7959Z" fill="white"/>
<path d="M24.9481 22.3554L25.2093 22.4505L25.8116 20.7959L25.5503 20.7008L24.9481 22.3554Z" fill="white"/>
<path d="M30.9387 5.89617L31.2 5.99126L31.8022 4.33663L31.541 4.24154L30.9387 5.89617Z" fill="white"/>
<path d="M26.5646 22.8137L26.8384 22.8619L27.1441 21.1279L26.8703 21.0796L26.5646 22.8137Z" fill="white"/>
<path d="M29.6061 5.56418L29.8799 5.61246L30.1857 3.87838L29.9119 3.83011L29.6061 5.56418Z" fill="white"/>
<path d="M23.4357 5.06861L23.6764 4.9296L24.5568 6.45451L24.3161 6.59353L23.4357 5.06861Z" fill="white"/>
<path d="M32.1935 20.2375L32.4342 20.0985L33.3146 21.6234L33.0739 21.7625L32.1935 20.2375Z" fill="white"/>
<path d="M23.4357 21.6234L23.6764 21.7624L24.5568 20.2375L24.3161 20.0985L23.4357 21.6234Z" fill="white"/>
<path d="M32.1934 6.45451L32.4342 6.59352L33.3146 5.0686L33.0739 4.92959L32.1934 6.45451Z" fill="white"/>
<path d="M22.0733 6.05209L22.2863 5.87338L23.4182 7.22225L23.2052 7.40096L22.0733 6.05209Z" fill="white"/>
<path d="M33.3321 19.4698L33.5451 19.2911L34.6769 20.64L34.464 20.8187L33.3321 19.4698Z" fill="white"/>
<path d="M22.0733 20.64L22.2863 20.8187L23.4182 19.4698L23.2052 19.2911L22.0733 20.64Z" fill="white"/>
<path d="M33.3321 7.22225L33.5451 7.40096L34.6769 6.05209L34.464 5.87338L33.3321 7.22225Z" fill="white"/>
<path d="M20.9025 7.2572L21.0812 7.04422L22.4301 8.17605L22.2514 8.38903L20.9025 7.2572Z" fill="white"/>
<path d="M34.3202 18.516L34.4989 18.303L35.8478 19.4348L35.6691 19.6478L34.3202 18.516Z" fill="white"/>
<path d="M20.9025 19.4348L21.0812 19.6478L22.4301 18.516L22.2514 18.303L20.9025 19.4348Z" fill="white"/>
<path d="M34.3202 8.17605L34.4989 8.38903L35.8478 7.2572L35.6691 7.04422L34.3202 8.17605Z" fill="white"/>
<path d="M19.9587 8.64731L20.0977 8.40654L21.6226 9.28695L21.4836 9.52772L19.9587 8.64731Z" fill="white"/>
<path d="M35.1276 17.4051L35.2667 17.1643L36.7916 18.0447L36.6526 18.2855L35.1276 17.4051Z" fill="white"/>
<path d="M19.9587 18.0447L20.0977 18.2855L21.6226 17.4051L21.4836 17.1643L19.9587 18.0447Z" fill="white"/>
<path d="M35.1276 9.28695L35.2667 9.52772L36.7916 8.64731L36.6526 8.40653L35.1276 9.28695Z" fill="white"/>
<path d="M19.2707 10.1802L19.3657 9.91893L21.0204 10.5212L20.9253 10.7824L19.2707 10.1802Z" fill="white"/>
<path d="M35.7299 16.1709L35.825 15.9096L37.4796 16.5118L37.3845 16.7731L35.7299 16.1709Z" fill="white"/>
<path d="M19.2707 16.5119L19.3657 16.7731L21.0204 16.1709L20.9253 15.9096L19.2707 16.5119Z" fill="white"/>
<path d="M35.7299 10.5212L35.825 10.7824L37.4796 10.1802L37.3845 9.91894L35.7299 10.5212Z" fill="white"/>
<path d="M18.8592 11.8093L18.9075 11.5355L20.6416 11.8412L20.5933 12.115L18.8592 11.8093Z" fill="white"/>
<path d="M36.1087 14.8508L36.157 14.577L37.8911 14.8828L37.8428 15.1566L36.1087 14.8508Z" fill="white"/>
<path d="M18.8592 14.8828L18.9075 15.1566L20.6416 14.8508L20.5933 14.577L18.8592 14.8828Z" fill="white"/>
<path d="M36.1087 11.8412L36.157 12.115L37.8911 11.8093L37.8428 11.5355L36.1087 11.8412Z" fill="white"/>
<path d="M18.7369 13.485V13.207H20.4978V13.485H18.7369Z" fill="white"/>
<path d="M36.2525 13.485V13.207H38.0133V13.485H36.2525Z" fill="white"/>
<circle cx="13.5911" cy="14.0491" r="13.5911" fill="url(#paint0_linear_2139_22)"/>
<rect opacity="0.1" x="14.7196" width="27.2804" height="27.2804" rx="13.6402" fill="white"/>
<defs>
<linearGradient id="paint0_linear_2139_22" x1="13.5911" y1="0.499765" x2="13.5911" y2="27.5984" gradientUnits="userSpaceOnUse">
<stop stop-color="#1BC9FA"/>
<stop offset="0.760051" stop-color="#1F70F0"/>
</linearGradient>
</defs>
</svg>
