<svg width="132" height="35" viewBox="0 0 132 35" fill="none" xmlns="http://www.w3.org/2000/svg">
<path fill-rule="evenodd" clip-rule="evenodd" d="M50.4869 16.5069L40.5266 6.54651L41.765 5.30811L53.8394 17.3825L41.765 29.457L40.5266 28.2186L50.4869 18.2582H23.9502V16.5069H50.4869Z" fill="white" stroke="white" stroke-width="2"/>
<path fill-rule="evenodd" clip-rule="evenodd" d="M88.5651 16.5068L78.6048 6.54644L79.8432 5.30804L91.9176 17.3824L79.8432 29.4569L78.6048 28.2185L88.5651 18.2581H62.0284V16.5068H88.5651Z" fill="white" stroke="white" stroke-width="2"/>
<path fill-rule="evenodd" clip-rule="evenodd" d="M126.647 16.5069L116.687 6.54651L117.925 5.30811L130 17.3825L117.925 29.457L116.687 28.2186L126.647 18.2582H100.11V16.5069H126.647Z" fill="white" stroke="white" stroke-width="2"/>
<path d="M6.75297 23.9473C10.4825 23.9473 13.5059 20.9239 13.5059 17.1944C13.5059 13.4648 10.4825 10.4414 6.75297 10.4414C3.02341 10.4414 0 13.4648 0 17.1944C0 20.9239 3.02341 23.9473 6.75297 23.9473Z" fill="white"/>
</svg>
