<svg width="158" height="30" viewBox="0 0 158 30" fill="none" xmlns="http://www.w3.org/2000/svg">
<circle cx="13.5911" cy="15.0491" r="13.5911" fill="url(#paint0_linear_695_123)"/>
<rect opacity="0.1" x="14.7196" y="1.3598" width="27.2804" height="27.2804" rx="13.6402" fill="white"/>
<path d="M28.2361 4.70782H28.5142V6.46865H28.2361V4.70782Z" fill="white"/>
<path d="M28.2361 22.2234H28.5142V23.9842H28.2361V22.2234Z" fill="white"/>
<path d="M26.5646 4.87839L26.8384 4.83011L27.1441 6.56419L26.8703 6.61247L26.5646 4.87839Z" fill="white"/>
<path d="M29.6061 22.1279L29.8799 22.0796L30.1857 23.8137L29.9119 23.8619L29.6061 22.1279Z" fill="white"/>
<path d="M24.9481 5.33662L25.2093 5.24153L25.8116 6.89617L25.5503 6.99126L24.9481 5.33662Z" fill="white"/>
<path d="M30.9387 21.7959L31.2 21.7008L31.8022 23.3554L31.541 23.4505L30.9387 21.7959Z" fill="white"/>
<path d="M24.9481 23.3554L25.2093 23.4505L25.8116 21.7959L25.5503 21.7008L24.9481 23.3554Z" fill="white"/>
<path d="M30.9387 6.89617L31.2 6.99126L31.8022 5.33663L31.541 5.24154L30.9387 6.89617Z" fill="white"/>
<path d="M26.5646 23.8137L26.8384 23.8619L27.1441 22.1279L26.8703 22.0796L26.5646 23.8137Z" fill="white"/>
<path d="M29.6061 6.56418L29.8799 6.61246L30.1857 4.87838L29.9119 4.83011L29.6061 6.56418Z" fill="white"/>
<path d="M23.4357 6.06861L23.6764 5.9296L24.5568 7.45451L24.3161 7.59353L23.4357 6.06861Z" fill="white"/>
<path d="M32.1935 21.2375L32.4342 21.0985L33.3146 22.6234L33.0739 22.7625L32.1935 21.2375Z" fill="white"/>
<path d="M23.4357 22.6234L23.6764 22.7624L24.5568 21.2375L24.3161 21.0985L23.4357 22.6234Z" fill="white"/>
<path d="M32.1934 7.45451L32.4342 7.59352L33.3146 6.0686L33.0739 5.92959L32.1934 7.45451Z" fill="white"/>
<path d="M22.0733 7.05209L22.2863 6.87338L23.4182 8.22225L23.2052 8.40096L22.0733 7.05209Z" fill="white"/>
<path d="M33.3321 20.4698L33.5451 20.2911L34.6769 21.64L34.464 21.8187L33.3321 20.4698Z" fill="white"/>
<path d="M22.0733 21.64L22.2863 21.8187L23.4182 20.4698L23.2052 20.2911L22.0733 21.64Z" fill="white"/>
<path d="M33.3321 8.22225L33.5451 8.40096L34.6769 7.05209L34.464 6.87338L33.3321 8.22225Z" fill="white"/>
<path d="M20.9025 8.2572L21.0812 8.04422L22.4301 9.17605L22.2514 9.38903L20.9025 8.2572Z" fill="white"/>
<path d="M34.3202 19.516L34.4989 19.303L35.8478 20.4348L35.6691 20.6478L34.3202 19.516Z" fill="white"/>
<path d="M20.9025 20.4348L21.0812 20.6478L22.4301 19.516L22.2514 19.303L20.9025 20.4348Z" fill="white"/>
<path d="M34.3202 9.17605L34.4989 9.38903L35.8478 8.2572L35.6691 8.04422L34.3202 9.17605Z" fill="white"/>
<path d="M19.9587 9.64731L20.0977 9.40654L21.6226 10.2869L21.4836 10.5277L19.9587 9.64731Z" fill="white"/>
<path d="M35.1276 18.4051L35.2667 18.1643L36.7916 19.0447L36.6526 19.2855L35.1276 18.4051Z" fill="white"/>
<path d="M19.9587 19.0447L20.0977 19.2855L21.6226 18.4051L21.4836 18.1643L19.9587 19.0447Z" fill="white"/>
<path d="M35.1276 10.2869L35.2667 10.5277L36.7916 9.64731L36.6526 9.40653L35.1276 10.2869Z" fill="white"/>
<path d="M19.2707 11.1802L19.3657 10.9189L21.0204 11.5212L20.9253 11.7824L19.2707 11.1802Z" fill="white"/>
<path d="M35.7299 17.1709L35.825 16.9096L37.4796 17.5118L37.3845 17.7731L35.7299 17.1709Z" fill="white"/>
<path d="M19.2707 17.5119L19.3657 17.7731L21.0204 17.1709L20.9253 16.9096L19.2707 17.5119Z" fill="white"/>
<path d="M35.7299 11.5212L35.825 11.7824L37.4796 11.1802L37.3845 10.9189L35.7299 11.5212Z" fill="white"/>
<path d="M18.8592 12.8093L18.9075 12.5355L20.6416 12.8412L20.5933 13.115L18.8592 12.8093Z" fill="white"/>
<path d="M36.1087 15.8508L36.157 15.577L37.8911 15.8828L37.8428 16.1566L36.1087 15.8508Z" fill="white"/>
<path d="M18.8592 15.8828L18.9075 16.1566L20.6416 15.8508L20.5933 15.577L18.8592 15.8828Z" fill="white"/>
<path d="M36.1087 12.8412L36.157 13.115L37.8911 12.8093L37.8428 12.5355L36.1087 12.8412Z" fill="white"/>
<path d="M18.7369 14.485V14.207H20.4978V14.485H18.7369Z" fill="white"/>
<path d="M36.2525 14.485V14.207H38.0133V14.485H36.2525Z" fill="white"/>
<path d="M140.799 8.36365V20H140.435L132.48 9.04547H132.435V20H132.071V8.36365H132.435L140.389 19.3182H140.435V8.36365H140.799Z" fill="white"/>
<path d="M129.815 14.1818C129.815 15.3674 129.613 16.4091 129.207 17.3068C128.802 18.2045 128.238 18.9053 127.514 19.4091C126.791 19.9091 125.952 20.1591 124.997 20.1591C124.039 20.1591 123.198 19.9072 122.475 19.4034C121.751 18.8996 121.187 18.1988 120.781 17.3011C120.38 16.4034 120.179 15.3636 120.179 14.1818C120.179 12.9962 120.382 11.9564 120.787 11.0625C121.192 10.1648 121.757 9.464 122.48 8.96021C123.204 8.45642 124.043 8.20453 124.997 8.20453C125.952 8.20453 126.791 8.45642 127.514 8.96021C128.238 9.46021 128.802 10.1591 129.207 11.0568C129.613 11.9545 129.815 12.9962 129.815 14.1818ZM129.452 14.1818C129.452 13.0682 129.264 12.0909 128.889 11.25C128.514 10.4053 127.992 9.74809 127.321 9.27839C126.654 8.80491 125.88 8.56816 124.997 8.56816C124.118 8.56816 123.344 8.80301 122.673 9.27271C122.007 9.73862 121.484 10.3939 121.105 11.2386C120.73 12.0795 120.543 13.0606 120.543 14.1818C120.543 15.2879 120.728 16.2632 121.1 17.1079C121.471 17.9488 121.99 18.6079 122.656 19.0852C123.327 19.5587 124.107 19.7954 124.997 19.7954C125.88 19.7954 126.656 19.5606 127.327 19.0909C127.997 18.6174 128.52 17.9602 128.895 17.1193C129.27 16.2746 129.456 15.2954 129.452 14.1818Z" fill="white"/>
<path d="M117.922 8.36365V20H117.558V8.36365H117.922Z" fill="white"/>
<path d="M114.709 11.2727C114.652 10.4773 114.347 9.82387 113.794 9.31251C113.245 8.80114 112.519 8.54546 111.618 8.54546C111.027 8.54546 110.498 8.6591 110.032 8.88637C109.567 9.11364 109.199 9.42614 108.93 9.82387C108.661 10.2178 108.527 10.6705 108.527 11.1818C108.527 11.4773 108.576 11.75 108.674 12C108.773 12.25 108.923 12.4792 109.123 12.6875C109.328 12.8921 109.584 13.0777 109.89 13.2443C110.201 13.4072 110.565 13.553 110.981 13.6818L112.299 14.0909C112.803 14.2462 113.239 14.4205 113.606 14.6136C113.974 14.8068 114.277 15.0246 114.515 15.2671C114.758 15.5057 114.938 15.7727 115.055 16.0682C115.173 16.3599 115.231 16.6856 115.231 17.0455C115.231 17.6515 115.076 18.1913 114.765 18.6648C114.455 19.1383 114.021 19.5095 113.464 19.7784C112.907 20.0474 112.262 20.1818 111.527 20.1818C110.818 20.1818 110.199 20.0587 109.669 19.8125C109.138 19.5625 108.718 19.2197 108.407 18.7841C108.101 18.3447 107.928 17.8409 107.89 17.2727H108.254C108.292 17.7727 108.449 18.214 108.726 18.5966C109.002 18.9792 109.377 19.2784 109.851 19.4943C110.328 19.7102 110.887 19.8182 111.527 19.8182C112.193 19.8182 112.777 19.7027 113.277 19.4716C113.781 19.2367 114.171 18.911 114.447 18.4943C114.728 18.0777 114.868 17.5947 114.868 17.0455C114.868 16.6288 114.777 16.2633 114.595 15.9489C114.413 15.6307 114.127 15.3504 113.737 15.108C113.347 14.8655 112.837 14.6477 112.209 14.4546L110.89 14.0455C109.978 13.7576 109.294 13.3769 108.839 12.9034C108.388 12.4299 108.163 11.8561 108.163 11.1818C108.163 10.6099 108.313 10.0985 108.612 9.64773C108.911 9.19319 109.32 8.83523 109.839 8.57387C110.362 8.31251 110.955 8.18182 111.618 8.18182C112.284 8.18182 112.87 8.3144 113.373 8.57955C113.877 8.8447 114.277 9.21023 114.572 9.67614C114.868 10.1421 115.034 10.6742 115.072 11.2727H114.709Z" fill="white"/>
<path d="M105.565 8.36365V20H105.201V8.36365H105.565Z" fill="white"/>
<path d="M95.1528 8.36365L99.1528 19.5455H99.1983L103.198 8.36365H103.585L99.4256 20H98.9256L94.7665 8.36365H95.1528Z" fill="white"/>
<path d="M94.2166 8.36365V20H91.0575V8.36365H94.2166Z" fill="white"/>
<path d="M80.475 10.9091V8.36365H90.5886V10.9091H87.0886V20H83.975V10.9091H80.475Z" fill="white"/>
<path d="M73.7631 20V8.36365H76.9222V17.4546H81.6268V20H73.7631Z" fill="white"/>
<path d="M69.8226 8.36365H72.9817V15.8182C72.9817 16.7046 72.7696 17.4716 72.3454 18.1193C71.9249 18.7633 71.3378 19.2614 70.584 19.6136C69.8302 19.9621 68.9552 20.1364 67.959 20.1364C66.9552 20.1364 66.0764 19.9621 65.3226 19.6136C64.5689 19.2614 63.9817 18.7633 63.5613 18.1193C63.1446 17.4716 62.9363 16.7046 62.9363 15.8182V8.36365H66.0954V15.5455C66.0954 15.9053 66.1749 16.2273 66.334 16.5114C66.4931 16.7917 66.7128 17.0114 66.9931 17.1705C67.2772 17.3296 67.5992 17.4091 67.959 17.4091C68.3226 17.4091 68.6446 17.3296 68.9249 17.1705C69.2052 17.0114 69.4249 16.7917 69.584 16.5114C69.7431 16.2273 69.8226 15.9053 69.8226 15.5455V8.36365Z" fill="white"/>
<path d="M48.75 8.36365H52.6818L55.3864 14.9546H55.5227L58.2273 8.36365H62.1591V20H59.0682V13.2727H58.9773L56.3864 19.9091H54.5227L51.9318 13.2273H51.8409V20H48.75V8.36365Z" fill="white"/>
<defs>
<linearGradient id="paint0_linear_695_123" x1="13.5911" y1="1.49976" x2="13.5911" y2="28.5984" gradientUnits="userSpaceOnUse">
<stop stop-color="#1BC9FA"/>
<stop offset="0.760051" stop-color="#1F70F0"/>
</linearGradient>
</defs>
</svg>
